<?xml version="1.0" encoding="UTF-8"?>
<svg id="Layer_1" data-name="Layer 1" xmlns="http://www.w3.org/2000/svg" xmlns:xlink="http://www.w3.org/1999/xlink" viewBox="0 0 1882.51 1882.51">
  <defs>
    <style>
      .cls-1 {
        fill: url(#linear-gradient);
      }

      .cls-2 {
        fill: #2c3e50;
      }
    </style>
    <linearGradient id="linear-gradient" x1="1244.57" y1="579.97" x2="762.88" y2="966.77" gradientUnits="userSpaceOnUse">
      <stop offset=".36" stop-color="#f8991d"/>
      <stop offset=".82" stop-color="#2c3e50"/>
    </linearGradient>
  </defs>
  <path class="cls-1" d="M1257.57,578.35c-2.28-9.29-6.25-17.9-11.57-25.51-13.88-19.89-36.93-32.89-63.03-32.89s-49.14,13.01-63.02,32.89c-1.1,1.57-2.14,3.19-3.12,4.85-7.58,12.8-21.34,20.66-36.22,20.66h-246.97c-17.71,0-34.1,5.63-47.47,15.2-7.79,5.56-14.54,12.45-19.95,20.33-5.79,8.42-10.03,17.96-12.34,28.25-.92,4.1-1.54,8.32-1.81,12.63v10.69c.26,4.16.85,8.24,1.72,12.21,2.32,10.62,6.7,20.48,12.72,29.1,5.36,7.71,12.02,14.45,19.66,19.9,13.38,9.57,29.77,15.2,47.47,15.2v.45h70.99c1.09-.95,2.17-1.92,3.22-2.91v-32.64h-75.24c-19.51,0-36.22-12.03-43.08-29.1-2.17-5.36-3.36-11.21-3.36-17.34,0-6.46,1.32-12.61,3.7-18.19,7.07-16.61,23.55-28.25,42.73-28.25h247.24c15.16,0,29.01,8.23,36.62,21.34,1.38,2.39,2.9,4.69,4.52,6.91,13.97,19.08,36.53,31.46,61.99,31.46s48.02-12.38,62-31.46c6.1-8.3,10.56-17.87,12.9-28.25,1.26-5.5,1.92-11.22,1.92-17.11,0-6.36-.77-12.53-2.23-18.43ZM1223.65,612.82c-6.39,15.85-22.15,27.06-40.58,27.06s-34.21-11.2-40.59-27.06c-1.97-4.86-3.04-10.16-3.04-15.71,0-6.55,1.5-12.77,4.21-18.32,7-14.44,22.02-24.43,39.43-24.43s32.42,9.99,39.43,24.43c2.69,5.55,4.19,11.77,4.19,18.32,0,5.55-1.08,10.85-3.04,15.71ZM834.92,642.13h72.93v35.53h-72.93c-9.81,0-17.77-7.95-17.77-17.77s7.95-17.77,17.77-17.77ZM1250.29,940.31c-2.86-12.3-6.82-24.19-11.76-35.54-4.15-9.52-8.99-18.66-14.47-27.37-.83-1.33-1.68-2.65-2.55-3.96-7.5-11.35-16.09-21.94-25.63-31.58-1.17-1.2-2.37-2.4-3.59-3.54-9.76-9.44-20.45-17.93-31.92-25.31,0,0-15.14-9.59-29.94-16-10.9-4.73-22.31-8.55-34.1-11.37-15.64-3.74-31.97-5.73-48.77-5.73h-45.31c-13.46-19.8-35.83-32.77-61.16-32.77-20.66,0-39.34,8.62-52.84,22.54l-55.95.02c-16.79,0-31.95-4.42-46.15-11.18-8.99-4.27-17.3-9.74-24.72-16.21-3.32-2.88-6.45-5.96-9.38-9.23-7.06-7.82-12.99-16.68-17.53-26.32-4.28-9.08-7.33-18.85-8.93-29.1-1.22-10.98-.96-24.19.36-35.53,1.74-9.96,4.87-19.44,9.16-28.25,4.46-9.15,10.17-17.59,16.94-25.08,3.36-3.73,6.97-7.23,10.83-10.46,7.05-5.93,14.85-10.98,23.27-14.97,14.2-6.77,30.09-10.55,46.87-10.55h202.33v-35.54h-201.73c-16.63,0-32.61,2.83-47.47,8.05-12.21,4.27-23.65,10.14-34.1,17.36-4.54,3.13-8.88,6.51-13.01,10.14-5.28,4.61-10.22,9.61-14.76,14.95-2.9,3.38-5.64,6.91-8.2,10.56-7.64,10.84-13.8,22.78-18.22,35.53-3.14,9.05-5.39,18.49-6.66,28.25-.49,3.63-.82,7.3-1.01,11.01v15.61c.15,3,.41,5.97.76,8.92,1.15,10.06,3.36,19.8,6.5,29.1,4.28,12.74,10.3,24.69,17.78,35.54,2.81,4.1,5.83,8.03,9.06,11.8,4.74,5.56,9.9,10.76,15.45,15.57,3.92,3.38,8.03,6.56,12.31,9.52,10.44,7.21,21.88,13.1,34.1,17.35,14.86,5.21,30.16,8.66,46.79,8.66h35.81c-1.41,5.87-2.17,11.99-2.17,18.3,0,3.58.26,7.1.72,10.55h-26.93c-1.61.04-3.24.06-4.87.06s-3.25-.03-4.87-.06c-15.41-.42-30.33-2.82-44.49-6.96-11.94-3.49-23.37-8.21-34.1-14.03-4.5-2.42-8.87-5.05-13.1-7.85-5.09-3.34-9.98-6.96-14.67-10.81-9.01-7.41-17.26-15.68-24.61-24.73-3.36-4.11-6.51-8.38-9.48-12.8-3.15-4.7-6.09-9.56-8.76-14.57-6.01-11.17-10.81-23.08-14.24-35.54-2.59-9.4-4.41-19.13-5.36-29.1-.79-11.73-.72-23.57.24-35.53,1.05-9.67,2.92-19.12,5.54-28.25,3.55-12.47,8.48-24.37,14.61-35.53,2.47-4.48,5.13-8.85,7.97-13.08,2.88-4.28,5.95-8.43,9.19-12.43,7.42-9.19,15.77-17.59,24.91-25.1,4.51-3.7,9.21-7.2,14.09-10.44,4.42-2.95,8.98-5.69,13.67-8.23,10.72-5.82,22.15-10.55,34.1-14.03,14.74-4.31,30.28-6.73,46.36-7,1-.01,2-.03,3-.03s2,.01,3,.03h414.11v-35.54h-417.7c-16.8.01-33.12,2-48.77,5.74-11.79,2.82-23.19,6.64-34.1,11.37-9.66,4.19-18.94,9.07-27.77,14.62-1.99,1.23-3.96,2.51-5.89,3.82-10.07,6.79-19.5,14.44-28.2,22.86-2.17,2.08-4.29,4.2-6.36,6.39-8.43,8.87-16.09,18.48-22.86,28.73-1.49,2.24-2.92,4.51-4.32,6.82-4.93,8.15-9.33,16.67-13.13,25.51-4.87,11.35-8.76,23.23-11.54,35.53-2.1,9.2-3.57,18.63-4.39,28.25-.38,4.52-.62,9.08-.7,13.68v8.03c.09,4.64.33,9.25.72,13.81.85,9.92,2.4,19.63,4.6,29.1,2.86,12.3,6.82,24.19,11.76,35.54,4.15,9.52,8.99,18.66,14.47,27.37.83,1.33,1.68,2.65,2.55,3.96,7.5,11.35,16.09,21.94,25.63,31.58,1.17,1.2,2.37,2.4,3.59,3.54,9.76,9.44,20.45,17.93,31.92,25.31,0,0,15.14,9.59,29.94,16,10.9,4.73,22.31,8.55,34.1,11.37,15.64,3.74,31.97,5.73,48.77,5.73h45.05c13.46,19.78,35.81,32.72,61.12,32.72,20.63,0,39.31-8.6,52.8-22.49l56.28-.02c16.79,0,31.95,4.42,46.15,11.18,8.99,4.27,17.3,9.74,24.72,16.21,3.32,2.88,6.45,5.96,9.38,9.23,7.06,7.82,12.99,16.68,17.53,26.32,4.28,9.08,7.33,18.85,8.93,29.1,1.22,10.98.96,24.19-.36,35.53-1.74,9.96-4.87,19.44-9.16,28.25-4.46,9.15-10.17,17.59-16.94,25.08-3.36,3.73-6.97,7.23-10.83,10.46-7.05,5.93-14.85,10.98-23.27,14.97-14.2,6.77-30.09,10.55-46.87,10.55h-202.33v35.54h201.73c16.63,0,32.61-2.83,47.47-8.05,12.21-4.27,23.65-10.14,34.1-17.36,4.54-3.13,8.88-6.51,13.01-10.14,5.28-4.61,10.22-9.61,14.76-14.95,2.9-3.38,5.64-6.91,8.2-10.56,7.64-10.84,13.8-22.78,18.22-35.53,3.14-9.05,5.39-18.49,6.66-28.25.49-3.63.82-7.3,1.01-11.01v-15.61c-.15-3-.41-5.97-.76-8.92-1.15-10.06-3.36-19.8-6.5-29.1-4.28-12.74-10.3-24.69-17.78-35.54-2.81-4.1-5.83-8.03-9.06-11.8-4.74-5.56-9.9-10.76-15.45-15.57-3.92-3.38-8.03-6.56-12.31-9.52-10.44-7.21-21.88-13.1-34.1-17.35-14.86-5.21-30.16-8.66-46.79-8.66h-36.11c1.41-5.88,2.18-12.02,2.18-18.35,0-3.57-.26-7.07-.72-10.5h27.22c1.61-.04,3.24-.06,4.87-.06s3.25.03,4.87.06c15.41.42,30.33,2.82,44.49,6.96,11.94,3.49,23.37,8.21,34.1,14.03,4.5,2.42,8.87,5.05,13.1,7.85,5.09,3.34,9.98,6.96,14.67,10.81,9.01,7.41,17.26,15.68,24.61,24.73,3.36,4.11,6.51,8.38,9.48,12.8,3.15,4.7,6.09,9.56,8.76,14.57,6.01,11.17,10.81,23.08,14.24,35.54,2.59,9.4,4.41,19.13,5.36,29.1.79,11.73.72,23.57-.24,35.53-1.05,9.67-2.92,19.12-5.54,28.25-3.55,12.47-8.48,24.37-14.61,35.53-2.47,4.48-5.13,8.85-7.97,13.08-2.88,4.28-5.95,8.43-9.19,12.43-7.42,9.19-15.77,17.59-24.91,25.1-4.51,3.7-9.21,7.2-14.09,10.44-4.42,2.95-8.98,5.69-13.67,8.23-10.72,5.82-22.15,10.55-34.1,14.03-14.74,4.31-30.28,6.73-46.36,7-1,.01-2,.03-3,.03s-2-.01-3-.03h-414.11v35.54h417.7c16.8-.01,33.12-2,48.77-5.74,11.79-2.82,23.19-6.64,34.1-11.37,9.66-4.19,18.94-9.07,27.77-14.62,1.99-1.23,3.96-2.51,5.89-3.82,10.07-6.79,19.5-14.44,28.2-22.86,2.17-2.08,4.29-4.2,6.36-6.39,8.43-8.87,16.09-18.48,22.86-28.73,1.49-2.24,2.92-4.51,4.32-6.82,4.93-8.15,9.33-16.67,13.13-25.51,4.87-11.35,8.76-23.23,11.54-35.53,2.1-9.2,3.57-18.63,4.39-28.25.38-4.52.62-9.08.7-13.68v-8.03c-.09-4.64-.33-9.25-.72-13.81-.85-9.92-2.4-19.63-4.6-29.1ZM941.11,863.67c-21.64,0-39.17-17.98-39.17-40.16s17.54-40.16,39.17-40.16,39.17,17.98,39.17,40.16-17.54,40.16-39.17,40.16ZM699.54,1127.12c26.09,0,49.14-13.01,63.02-32.89,1.1-1.57,2.14-3.19,3.12-4.85,7.58-12.8,21.34-20.66,36.22-20.66h246.97c17.71,0,34.1-5.63,47.47-15.2,7.79-5.56,14.54-12.45,19.95-20.33,5.79-8.42,10.03-17.96,12.34-28.25.92-4.1,1.54-8.32,1.81-12.63v-10.69c-.26-4.16-.85-8.24-1.72-12.21-2.32-10.62-6.7-20.48-12.72-29.1-5.36-7.71-12.02-14.45-19.66-19.9-13.38-9.57-29.77-15.2-47.47-15.2v-.45h-70.99c-1.09.95-2.17,1.92-3.22,2.91v32.64h75.24c19.51,0,36.22,12.03,43.08,29.1,2.17,5.36,3.36,11.21,3.36,17.34,0,6.46-1.32,12.61-3.7,18.19-7.07,16.61-23.55,28.25-42.73,28.25h-247.24c-15.16,0-29.01-8.23-36.62-21.34-1.38-2.39-2.9-4.69-4.52-6.91-13.97-19.08-36.53-31.46-61.99-31.46s-48.02,12.38-62,31.46c-6.1,8.3-10.56,17.87-12.9,28.25-1.26,5.5-1.92,11.22-1.92,17.11,0,6.36.77,12.53,2.23,18.43,2.28,9.29,6.25,17.9,11.57,25.51,13.88,19.89,36.93,32.89,63.03,32.89ZM658.86,1034.26c6.39-15.85,22.15-27.06,40.58-27.06s34.21,11.2,40.59,27.06c1.97,4.86,3.04,10.16,3.04,15.71,0,6.55-1.5,12.77-4.21,18.32-7,14.44-22.02,24.43-39.43,24.43s-32.42-9.99-39.43-24.43c-2.69-5.55-4.19-11.77-4.19-18.32,0-5.55,1.08-10.85,3.04-15.71ZM1047.59,1004.94h-72.93v-35.53h72.93c9.81,0,17.77,7.95,17.77,17.77h0c0,9.81-7.95,17.77-17.77,17.77Z"/>
  <g>
    <path class="cls-2" d="M466.6,1372.16c-4.19-2.35-8.83-4.25-13.92-5.7-5.09-1.45-10.15-2.77-15.18-3.94-5.03-1.17-9.64-2.49-13.83-3.94-4.19-1.45-7.6-3.41-10.23-5.87-2.63-2.46-3.94-5.76-3.94-9.89,0-3.46.98-6.59,2.93-9.39,1.95-2.79,5.06-5.03,9.31-6.71,4.25-1.68,9.67-2.52,16.27-2.52,5.25,0,10.67.75,16.27,2.26,5.59,1.51,10.9,3.94,15.93,7.3l5.53-13.42c-4.92-3.35-10.73-5.92-17.44-7.71-6.71-1.79-13.47-2.68-20.29-2.68-10.29,0-18.76,1.54-25.41,4.61-6.65,3.08-11.57,7.15-14.76,12.24-3.19,5.09-4.78,10.65-4.78,16.69s1.28,11.38,3.86,15.34c2.57,3.97,5.95,7.13,10.15,9.47s8.83,4.28,13.92,5.79c5.09,1.51,10.15,2.82,15.18,3.94,5.03,1.12,9.64,2.43,13.83,3.94,4.19,1.51,7.6,3.5,10.23,5.95,2.63,2.46,3.94,5.7,3.94,9.73,0,3.47-1.01,6.57-3.02,9.31-2.01,2.74-5.14,4.89-9.39,6.46-4.25,1.57-9.78,2.35-16.6,2.35-7.49,0-14.7-1.28-21.63-3.86-6.93-2.57-12.63-5.81-17.1-9.73l-6.21,13.08c4.7,4.36,11.12,7.91,19.28,10.65,8.16,2.74,16.71,4.11,25.66,4.11,10.28,0,18.81-1.54,25.57-4.61,6.76-3.07,11.76-7.15,15.01-12.24,3.24-5.09,4.86-10.59,4.86-16.52s-1.29-11.18-3.86-15.09c-2.57-3.91-5.95-7.04-10.15-9.39Z"/>
    <polygon class="cls-2" points="498.21 1325.88 538.46 1325.88 538.46 1428.67 555.06 1428.67 555.06 1325.88 595.31 1325.88 595.31 1311.29 498.21 1311.29 498.21 1325.88"/>
    <path class="cls-2" d="M695.75,1388.09c7.27-3.24,12.86-7.91,16.77-14,3.91-6.09,5.87-13.39,5.87-21.89s-1.96-15.82-5.87-21.97c-3.91-6.15-9.5-10.84-16.77-14.09-7.27-3.24-16.04-4.86-26.33-4.86h-45.78v117.39h16.77v-35.72h29.01c2.58,0,5.06-.1,7.45-.31l25.25,36.02h18.28l-27.85-39.3c1.1-.4,2.17-.82,3.2-1.28ZM668.92,1378.7h-28.51v-52.82h28.51c10.73,0,18.87,2.29,24.4,6.87,5.53,4.59,8.3,11.07,8.3,19.45s-2.77,14.9-8.3,19.54c-5.53,4.64-13.67,6.96-24.4,6.96Z"/>
    <path class="cls-2" d="M837.62,1377.36c0,13.08-2.88,22.64-8.64,28.68-5.76,6.04-13.95,9.06-24.57,9.06s-18.64-3.02-24.4-9.06c-5.76-6.04-8.64-15.6-8.64-28.68v-66.07h-16.77v66.74c0,17,4.42,29.91,13.25,38.74,8.83,8.83,20.96,13.25,36.39,13.25s27.7-4.41,36.47-13.25c8.78-8.83,13.16-21.74,13.16-38.74v-66.74h-16.27v66.07Z"/>
    <rect class="cls-2" x="901.68" y="1311.29" width="16.77" height="117.39"/>
    <polygon class="cls-2" points="1051.26 1398.75 980.83 1311.29 967.08 1311.29 967.08 1428.67 983.85 1428.67 983.85 1341.2 1054.28 1428.67 1068.03 1428.67 1068.03 1311.29 1051.26 1311.29 1051.26 1398.75"/>
    <path class="cls-2" d="M1210.91,1326.97c-5.59-5.42-12.19-9.61-19.79-12.58-7.6-2.96-15.88-4.44-24.82-4.44s-17.39,1.51-24.99,4.53c-7.6,3.02-14.2,7.24-19.79,12.66-5.59,5.42-9.95,11.77-13.08,19.03-3.13,7.27-4.69,15.2-4.69,23.81s1.56,16.55,4.69,23.81c3.13,7.27,7.49,13.61,13.08,19.03,5.59,5.42,12.21,9.64,19.87,12.66,7.66,3.02,15.96,4.53,24.9,4.53s17.22-1.48,24.82-4.44c7.6-2.96,14.2-7.15,19.79-12.58,5.59-5.42,9.92-11.77,13-19.03,3.07-7.27,4.61-15.26,4.61-23.98s-1.54-16.57-4.61-23.9c-3.08-7.32-7.41-13.69-13-19.12ZM1208.31,1387.92c-2.29,5.48-5.48,10.26-9.56,14.34-4.08,4.08-8.89,7.24-14.42,9.47-5.53,2.24-11.6,3.35-18.19,3.35s-12.49-1.12-18.03-3.35c-5.53-2.24-10.37-5.39-14.51-9.47-4.14-4.08-7.35-8.86-9.64-14.34-2.29-5.48-3.44-11.46-3.44-17.94s1.14-12.44,3.44-17.86c2.29-5.42,5.51-10.2,9.64-14.34s8.97-7.32,14.51-9.56c5.53-2.23,11.54-3.35,18.03-3.35s12.66,1.12,18.19,3.35c5.53,2.24,10.34,5.42,14.42,9.56,4.08,4.14,7.27,8.92,9.56,14.34,2.29,5.42,3.44,11.38,3.44,17.86s-1.15,12.47-3.44,17.94Z"/>
    <polygon class="cls-2" points="1303.49 1407.79 1261.21 1311.29 1243.1 1311.29 1294.75 1428.67 1311.35 1428.67 1362.84 1311.29 1346.07 1311.29 1303.49 1407.79"/>
    <path class="cls-2" d="M1474.69,1428.67h17.61l-53.33-117.39h-16.6l-53.16,117.39h17.27l12.9-29.35h62.42l12.9,29.35ZM1405.27,1385.91l25.31-57.6,25.31,57.6h-50.63Z"/>
  </g>
</svg>